<?xml version="1.0" standalone="no"?>
<!DOCTYPE svg PUBLIC "-//W3C//DTD SVG 20010904//EN"
 "http://www.w3.org/TR/2001/REC-SVG-20010904/DTD/svg10.dtd">
<svg version="1.0" xmlns="http://www.w3.org/2000/svg"
 width="3543.000000pt" height="1063.000000pt" viewBox="0 0 3543.000000 1063.000000"
 preserveAspectRatio="xMidYMid meet">

<g transform="translate(0.000000,1063.000000) scale(0.100000,-0.100000)"
fill="#000000" stroke="none">
<path d="M14835 8596 c-352 -81 -555 -381 -555 -819 0 -179 36 -346 102 -470
36 -67 138 -166 221 -216 31 -18 163 -77 293 -131 261 -109 318 -139 351 -189
42 -62 48 -103 48 -341 l0 -225 -32 -65 c-52 -106 -118 -141 -269 -141 -109
-1 -176 23 -226 79 -55 63 -71 115 -77 242 l-6 115 -212 3 -213 2 0 -128 c0
-236 63 -396 214 -545 152 -150 376 -221 620 -196 335 34 534 217 607 558 26
122 36 382 20 541 -20 211 -63 321 -166 426 -81 82 -146 117 -412 225 -332
133 -356 147 -400 237 -27 55 -28 61 -28 222 1 149 3 171 24 224 30 76 78 128
143 156 44 19 65 22 137 18 135 -7 185 -40 242 -162 28 -60 33 -83 38 -180 l6
-111 213 -3 214 -2 -4 172 c-5 196 -19 253 -85 368 -49 83 -170 204 -253 253
-114 66 -205 90 -360 93 -90 2 -155 -1 -195 -10z"/>
<path d="M15910 8577 c0 -15 598 -2956 605 -2975 3 -10 47 -12 192 -10 l187 3
308 1495 c169 822 307 1496 307 1498 1 1 -102 2 -229 2 -136 0 -230 -4 -230
-9 0 -19 -340 -2075 -344 -2078 -5 -5 -3 -16 -181 1077 -85 525 -158 967 -161
983 l-6 27 -224 0 c-175 0 -224 -3 -224 -13z"/>
<path d="M17762 7093 l3 -1498 638 -3 637 -2 0 215 0 215 -422 2 -423 3 -3
438 -2 437 370 0 370 0 0 205 0 205 -370 0 -370 0 0 440 0 440 425 0 425 0 0
200 0 200 -640 0 -640 0 2 -1497z"/>
<path d="M19302 7093 l3 -1498 215 0 215 0 5 898 5 898 314 -863 c173 -475
321 -880 329 -900 l14 -38 199 0 199 0 0 1500 0 1500 -215 0 -215 0 -2 -900
-3 -899 -314 877 c-173 482 -319 887 -324 900 -10 22 -12 22 -219 22 l-208 0
2 -1497z"/>
<path d="M21192 7093 l3 -1498 638 -3 637 -2 0 215 0 215 -422 2 -423 3 -3
1283 -2 1282 -215 0 -215 0 2 -1497z"/>
<path d="M16402 3553 l3 -1498 275 -3 c446 -5 600 15 764 101 160 83 266 228
318 432 l23 90 0 890 0 890 -23 85 c-69 260 -219 415 -472 486 -57 16 -116 18
-478 22 l-412 3 2 -1498z m724 1086 c119 -21 186 -86 219 -216 14 -53 15 -164
13 -894 -3 -790 -4 -837 -22 -886 -26 -72 -74 -125 -138 -154 -47 -20 -72 -24
-210 -27 l-158 -4 0 1096 0 1096 117 0 c64 0 145 -5 179 -11z"/>
<path d="M18192 3553 l3 -1498 638 -3 637 -2 0 215 0 215 -422 2 -423 3 -3
438 -2 437 370 0 370 0 0 205 0 205 -370 0 -370 0 0 440 0 440 425 0 425 0 0
200 0 200 -640 0 -640 0 2 -1497z"/>
<path d="M19610 5037 c0 -15 598 -2956 605 -2975 3 -10 47 -12 192 -10 l187 3
308 1495 c169 822 307 1496 307 1498 1 1 -102 2 -229 2 -136 0 -230 -4 -230
-9 0 -19 -340 -2075 -344 -2078 -5 -5 -3 -16 -181 1077 -85 525 -158 967 -161
983 l-6 27 -224 0 c-175 0 -224 -3 -224 -13z"/>
<path d="M15600 2265 l0 -215 215 0 215 0 0 215 0 215 -215 0 -215 0 0 -215z"/>
</g>
</svg>
